<svg xmlns="http://www.w3.org/2000/svg" viewBox="0 0 900 500">
  <!-- Background -->
  <rect width="900" height="500" fill="#f8f9fa" rx="10" ry="10" />
  
  <!-- Title -->
  <text x="450" y="30" font-family="Arial" font-size="24" text-anchor="middle" font-weight="bold">GitHub Data Analytics Pipeline Architecture</text>
  
  <!-- Data Source -->
  <rect x="50" y="80" width="120" height="60" rx="10" ry="10" fill="#e6f2ff" stroke="#0066cc" stroke-width="2" />
  <text x="110" y="115" font-family="Arial" font-size="14" text-anchor="middle">GitHub Archive</text>
  <text x="110" y="135" font-family="Arial" font-size="12" text-anchor="middle">JSON Data</text>
  
  <!-- Airflow -->
  <rect x="250" y="80" width="140" height="140" rx="10" ry="10" fill="#f2e6ff" stroke="#6600cc" stroke-width="2" />
  <text x="320" y="115" font-family="Arial" font-size="16" text-anchor="middle" font-weight="bold">Apache Airflow</text>
  <text x="320" y="140" font-family="Arial" font-size="12" text-anchor="middle">Workflow Orchestration</text>
  <text x="320" y="160" font-family="Arial" font-size="12" text-anchor="middle">DAGs</text>
  <text x="320" y="180" font-family="Arial" font-size="12" text-anchor="middle">Docker Containers</text>
  
  <!-- Python/Pandas -->
  <rect x="250" y="240" width="140" height="60" rx="10" ry="10" fill="#fff2e6" stroke="#cc6600" stroke-width="2" />
  <text x="320" y="270" font-family="Arial" font-size="16" text-anchor="middle">Python/Pandas</text>
  <text x="320" y="290" font-family="Arial" font-size="12" text-anchor="middle">Data Transformation</text>
  
  <!-- GCS -->
  <rect x="470" y="80" width="140" height="60" rx="10" ry="10" fill="#e6f9ff" stroke="#00a3cc" stroke-width="2" />
  <text x="540" y="110" font-family="Arial" font-size="16" text-anchor="middle">Google Cloud</text>
  <text x="540" y="130" font-family="Arial" font-size="12" text-anchor="middle">Storage (Data Lake)</text>
  
  <!-- BigQuery -->
  <rect x="470" y="160" width="140" height="60" rx="10" ry="10" fill="#e6fffa" stroke="#00cca3" stroke-width="2" />
  <text x="540" y="190" font-family="Arial" font-size="16" text-anchor="middle">BigQuery</text>
  <text x="540" y="210" font-family="Arial" font-size="12" text-anchor="middle">Data Warehouse</text>
  
  <!-- Streamlit -->
  <rect x="470" y="240" width="140" height="60" rx="10" ry="10" fill="#e6ffe6" stroke="#00cc00" stroke-width="2" />
  <text x="540" y="270" font-family="Arial" font-size="16" text-anchor="middle">Streamlit</text>
  <text x="540" y="290" font-family="Arial" font-size="12" text-anchor="middle">Data Visualization</text>
  
  <!-- Terraform -->
  <rect x="470" y="380" width="140" height="60" rx="10" ry="10" fill="#ffe6e6" stroke="#cc0000" stroke-width="2" />
  <text x="540" y="410" font-family="Arial" font-size="16" text-anchor="middle">Terraform</text>
  <text x="540" y="430" font-family="Arial" font-size="12" text-anchor="middle">Infrastructure as Code</text>
  
  <!-- PostgreSQL -->
  <rect x="250" y="320" width="140" height="60" rx="10" ry="10" fill="#e6e6ff" stroke="#0000cc" stroke-width="2" />
  <text x="320" y="350" font-family="Arial" font-size="16" text-anchor="middle">PostgreSQL</text>
  <text x="320" y="370" font-family="Arial" font-size="12" text-anchor="middle">Metadata Storage</text>
  
  <!-- GCP Cloud -->
  <path d="M 440 30 Q 670 30 670 160 Q 670 320 440 320 Q 670 320 670 460 Q 670 30 440 30" fill="none" stroke="#dadce0" stroke-width="2" stroke-dasharray="5,5" />
  <text x="680" y="50" font-family="Arial" font-size="14" text-anchor="start" font-style="italic">Google Cloud Platform</text>
  
  <!-- Lines -->
  <!-- GitHub Archive to Airflow -->
  <line x1="170" y1="110" x2="250" y2="110" stroke="#666" stroke-width="2" />
  <polygon points="242,106 250,110 242,114" fill="#666" />
  
  <!-- Airflow to Python -->
  <line x1="320" y1="220" x2="320" y2="240" stroke="#666" stroke-width="2" />
  <polygon points="316,232 320,240 324,232" fill="#666" />
  
  <!-- Airflow to GCS -->
  <line x1="390" y1="110" x2="470" y2="110" stroke="#666" stroke-width="2" />
  <polygon points="462,106 470,110 462,114" fill="#666" />
  
  <!-- GCS to BigQuery -->
  <line x1="540" y1="140" x2="540" y2="160" stroke="#666" stroke-width="2" />
  <polygon points="536,152 540,160 544,152" fill="#666" />
  
  <!-- BigQuery to Streamlit -->
  <line x1="540" y1="220" x2="540" y2="240" stroke="#666" stroke-width="2" />
  <polygon points="536,232 540,240 544,232" fill="#666" />
  
  <!-- Airflow to PostgreSQL -->
  <line x1="320" y1="220" x2="320" y2="320" stroke="#666" stroke-width="2" />
  <polygon points="316,312 320,320 324,312" fill="#666" />
  
  <!-- Terraform to GCP Resources -->
  <line x1="470" y1="410" x2="450" y2="410" stroke="#666" stroke-width="2" />
  <line x1="450" y1="410" x2="450" y2="110" stroke="#666" stroke-width="2" />
  <line x1="450" y1="110" x2="470" y2="110" stroke="#666" stroke-width="2" />
  <polygon points="462,106 470,110 462,114" fill="#666" />
  
  <line x1="450" y1="190" x2="470" y2="190" stroke="#666" stroke-width="2" />
  <polygon points="462,186 470,190 462,194" fill="#666" />
  
  <!-- Legend -->
  <rect x="700" y="380" width="160" height="100" rx="5" ry="5" fill="white" stroke="#ccc" stroke-width="1" />
  <text x="780" y="400" font-family="Arial" font-size="14" text-anchor="middle" font-weight="bold">Legend</text>
  
  <rect x="710" y="410" width="15" height="15" rx="3" ry="3" fill="#f2e6ff" stroke="#6600cc" stroke-width="1" />
  <text x="735" y="422" font-family="Arial" font-size="12" text-anchor="start">Workflow Tool</text>
  
  <rect x="710" y="430" width="15" height="15" rx="3" ry="3" fill="#e6fffa" stroke="#00cca3" stroke-width="1" />
  <text x="735" y="442" font-family="Arial" font-size="12" text-anchor="start">Data Storage</text>
  
  <rect x="710" y="450" width="15" height="15" rx="3" ry="3" fill="#e6ffe6" stroke="#00cc00" stroke-width="1" />
  <text x="735" y="462" font-family="Arial" font-size="12" text-anchor="start">Visualization</text>
  
  <!-- Data Flow Labels -->
  <text x="210" y="100" font-family="Arial" font-size="10" text-anchor="middle" font-style="italic">Extract</text>
  <text x="430" y="100" font-family="Arial" font-size="10" text-anchor="middle" font-style="italic">Load</text>
  <text x="540" y="150" font-family="Arial" font-size="10" text-anchor="middle" font-style="italic">Process</text>
  <text x="540" y="230" font-family="Arial" font-size="10" text-anchor="middle" font-style="italic">Analyze</text>
</svg>
